{
  "asset": {
    "generator": "Khronos glTF Blender I/O v1.6.16",
    "version": "2.0"
  },
  "scene": 0,
  "scenes": [
    {
      "name": "Scene",
      "nodes": [
        0
      ]
    }
  ],
  "nodes": [
    {
      "mesh": 0,
      "name": "wooden_table_02"
    }
  ],
  "materials": [
    {
      "doubleSided": true,
      "name": "wooden_table_02",
      "normalTexture": {
        "index": 0
      },
      "pbrMetallicRoughness": {
        "baseColorTexture": {
          "index": 1
        },
        "metallicRoughnessTexture": {
          "index": 2
        }
      }
    }
  ],
  "meshes": [
    {
      "name": "Cube.003",
      "primitives": [
        {
          "attributes": {
            "POSITION": 0,
            "NORMAL": 1,
            "TEXCOORD_0": 2
          },
          "indices": 3,
          "material": 0
        }
      ]
    }
  ],
  "textures": [
    {
      "sampler": 0,
      "source": 0
    },
    {
      "sampler": 0,
      "source": 1
    },
    {
      "sampler": 0,
      "source": 2
    }
  ],
  "images": [
    {
      "mimeType": "image/jpeg",
      "name": "wooden_table_02_nor_gl",
      "uri": "textures/wooden_table_02_nor_gl_4k.jpg"
    },
    {
      "mimeType": "image/jpeg",
      "name": "wooden_table_02_diff",
      "uri": "textures/wooden_table_02_diff_4k.jpg"
    },
    {
      "mimeType": "image/jpeg",
      "name": "wooden_table_02_metal-wooden_table_02_rough",
      "uri": "textures/wooden_table_02_arm_4k.jpg"
    }
  ],
  "accessors": [
    {
      "bufferView": 0,
      "componentType": 5126,
      "count": 200,
      "max": [
        0.5672084093093872,
        0.7994177341461182,
        0.35301241278648376
      ],
      "min": [
        -0.5672082304954529,
        -0.00012515290291048586,
        -0.35301241278648376
      ],
      "type": "VEC3"
    },
    {
      "bufferView": 1,
      "componentType": 5126,
      "count": 200,
      "type": "VEC3"
    },
    {
      "bufferView": 2,
      "componentType": 5126,
      "count": 200,
      "type": "VEC2"
    },
    {
      "bufferView": 3,
      "componentType": 5123,
      "count": 588,
      "type": "SCALAR"
    }
  ],
  "bufferViews": [
    {
      "buffer": 0,
      "byteLength": 2400,
      "byteOffset": 0
    },
    {
      "buffer": 0,
      "byteLength": 2400,
      "byteOffset": 2400
    },
    {
      "buffer": 0,
      "byteLength": 1600,
      "byteOffset": 4800
    },
    {
      "buffer": 0,
      "byteLength": 1176,
      "byteOffset": 6400
    }
  ],
  "samplers": [
    {
      "magFilter": 9729,
      "minFilter": 9987
    }
  ],
  "buffers": [
    {
      "byteLength": 7576,
      "uri": "wooden_table_02.bin"
    }
  ]
}